C:\Users\r0593348\3dpredictsim\Results\batch_windlass\Pog_s1_tmt_bCst_d05_k1500_WL40_ig24_pas_GRF.mot
nRows=25
nColumns=19

name C:\Users\r0593348\3dpredictsim\Results\batch_windlass\Pog_s1_tmt_bCst_d05_k1500_WL40_ig24_pas_GRF.mot
datacolumns 19
datarows 25
range 0.0000000000 0.2658041902
endheader
time 	ground_force_vx	ground_force_vy	ground_force_vz	ground_force_px	ground_force_py	ground_force_pz	1_ground_force_vx	1_ground_force_vy	1_ground_force_vz	1_ground_force_px	1_ground_force_py	1_ground_force_pz	ground_torque_x	ground_torque_y	ground_torque_z	1_ground_torque_x	1_ground_torque_y	1_ground_torque_z
        0.0000000000	      -67.7492254448	       48.9181063180	       17.2946500351	        0.1529399040	        0.0000000000	        0.0445534863	       80.1333252839	      428.5444300091	       -0.9303179075	       -0.3210872142	        0.0000000000	       -0.0328168661	        0.0000000000	        0.0000000000	        0.0000000000	        0.0000000000	        0.0000000000	        0.0000000000	
        0.0110751746	     -119.9828265753	      107.6240062052	       40.1562929592	        0.1633284984	        0.0000000000	        0.0420093384	       55.5657955359	      332.9942435642	       -7.5916304625	       -0.3148298417	        0.0000000000	       -0.0302287373	        0.0000000000	        0.0000000000	        0.0000000000	        0.0000000000	        0.0000000000	        0.0000000000	
        0.0221503492	      -98.0650576685	      226.8946052354	       59.7800125130	        0.1712345796	        0.0000000000	        0.0406826028	       26.7492210325	      235.5359950643	      -15.5838615291	       -0.3050591362	        0.0000000000	       -0.0255751710	        0.0000000000	        0.0000000000	        0.0000000000	        0.0000000000	        0.0000000000	        0.0000000000	
        0.0332255238	      -53.1046778816	      430.5881473955	       10.5691832901	        0.1776302194	        0.0000000000	        0.0402995724	        8.6539964568	      164.3001248618	      -16.7973311081	       -0.2935547389	        0.0000000000	       -0.0189769562	        0.0000000000	        0.0000000000	        0.0000000000	        0.0000000000	        0.0000000000	        0.0000000000	
        0.0443006984	      -74.3122215609	      676.8334293841	       -9.3460430234	        0.1874284316	        0.0000000000	        0.0427876409	       -1.1376612288	      132.5290875229	      -13.1201137035	       -0.2938787572	        0.0000000000	       -0.0188461692	        0.0000000000	        0.0000000000	        0.0000000000	        0.0000000000	        0.0000000000	        0.0000000000	
        0.0553758730	     -102.1029079428	      840.9521729964	      -17.0666061227	        0.1937689159	        0.0000000000	        0.0444399021	       -6.8167601476	       89.7918532292	       -9.6062098076	       -0.2937784803	        0.0000000000	       -0.0186756648	        0.0000000000	        0.0000000000	        0.0000000000	        0.0000000000	        0.0000000000	        0.0000000000	
        0.0664510476	     -113.3510856818	      903.9849133183	      -19.4156455570	        0.1984052354	        0.0000000000	        0.0454513180	      -14.1862131974	       37.4034916453	       -5.2451693935	       -0.2949512077	        0.0000000000	       -0.0186108753	        0.0000000000	        0.0000000000	        0.0000000000	        0.0000000000	        0.0000000000	        0.0000000000	
        0.0775262221	     -116.8636208139	      917.3427281218	      -19.7590473712	        0.2029516295	        0.0000000000	        0.0459364849	        0.1478037450	       -0.1471902702	       -0.0011111918	        0.0000000000	        0.0000000000	        0.0000000000	        0.0000000000	        0.0000000000	        0.0000000000	        0.0000000000	        0.0000000000	        0.0000000000	
        0.0886013967	     -109.3602883719	      897.4274966376	      -17.8942623030	        0.2071587003	        0.0000000000	        0.0459494490	        0.0004777515	       -0.0003989002	       -0.0000283002	        0.0000000000	        0.0000000000	        0.0000000000	        0.0000000000	        0.0000000000	        0.0000000000	        0.0000000000	        0.0000000000	        0.0000000000	
        0.0996765713	      -97.8634669425	      854.6168039312	      -17.8777588203	        0.2121185135	        0.0000000000	        0.0458016206	        0.0001466076	       -0.0001074469	       -0.0000101761	        0.0000000000	        0.0000000000	        0.0000000000	        0.0000000000	        0.0000000000	        0.0000000000	        0.0000000000	        0.0000000000	        0.0000000000	
        0.1107517459	      -84.4138398982	      802.5582286181	      -17.6518908637	        0.2165400608	        0.0000000000	        0.0455749302	        0.0005104719	       -0.0003370751	       -0.0000375048	        0.0000000000	        0.0000000000	        0.0000000000	        0.0000000000	        0.0000000000	        0.0000000000	        0.0000000000	        0.0000000000	        0.0000000000	
        0.1218269205	      -71.1159990124	      750.4335144880	      -17.7910229939	        0.2203053531	        0.0000000000	        0.0454325834	        0.0076752886	       -0.0046544801	       -0.0005864978	        0.0000000000	        0.0000000000	        0.0000000000	        0.0000000000	        0.0000000000	        0.0000000000	        0.0000000000	        0.0000000000	        0.0000000000	
        0.1329020951	      -59.0666089113	      705.3574841242	      -17.9237863792	        0.2237252083	        0.0000000000	        0.0453875906	       -0.0362278904	        0.0204720531	        0.0028581538	        0.0000000000	        0.0000000000	        0.0000000000	        0.0000000000	        0.0000000000	        0.0000000000	        0.0000000000	        0.0000000000	        0.0000000000	
        0.1439772697	      -48.4731341873	      668.9541275026	      -18.3696785486	        0.2270906426	        0.0000000000	        0.0454067545	       -0.0318247998	        0.0169451107	        0.0025829036	        0.0000000000	        0.0000000000	        0.0000000000	        0.0000000000	        0.0000000000	        0.0000000000	        0.0000000000	        0.0000000000	        0.0000000000	
        0.1550524443	      -39.3506903765	      640.1821548385	      -19.0050076665	        0.2305950008	        0.0000000000	        0.0454646567	       -0.0194449623	        0.0098319966	        0.0016231746	        0.0000000000	        0.0000000000	        0.0000000000	        0.0000000000	        0.0000000000	        0.0000000000	        0.0000000000	        0.0000000000	        0.0000000000	
        0.1661276189	      -31.9769539620	      617.6170853679	      -19.7943584949	        0.2342684488	        0.0000000000	        0.0455377707	       -0.0139714613	        0.0067521603	        0.0011984351	        0.0000000000	        0.0000000000	        0.0000000000	        0.0000000000	        0.0000000000	        0.0000000000	        0.0000000000	        0.0000000000	        0.0000000000	
        0.1772027935	      -25.8548587205	      600.4718760122	      -20.3422953928	        0.2381399490	        0.0000000000	        0.0456127900	       -0.0130048723	        0.0060390592	        0.0011421761	        0.0000000000	        0.0000000000	        0.0000000000	        0.0000000000	        0.0000000000	        0.0000000000	        0.0000000000	        0.0000000000	        0.0000000000	
        0.1882779681	      -21.4607328906	      588.6985540782	      -20.7691074985	        0.2423717634	        0.0000000000	        0.0456590966	       -0.0158120137	        0.0070856512	        0.0014137656	        0.0000000000	        0.0000000000	        0.0000000000	        0.0000000000	        0.0000000000	        0.0000000000	        0.0000000000	        0.0000000000	        0.0000000000	
        0.1993531427	      -18.9031885514	      581.9512607878	      -20.9384584025	        0.2468850650	        0.0000000000	        0.0456580765	       -0.0241246584	        0.0104741840	        0.0021864579	        0.0000000000	        0.0000000000	        0.0000000000	        0.0000000000	        0.0000000000	        0.0000000000	        0.0000000000	        0.0000000000	        0.0000000000	
        0.2104283172	      -16.7513625360	      578.9707941872	      -20.9461950667	        0.2516613692	        0.0000000000	        0.0455988127	       -0.0432782519	        0.0182755760	        0.0039557478	        0.0000000000	        0.0000000000	        0.0000000000	        0.0000000000	        0.0000000000	        0.0000000000	        0.0000000000	        0.0000000000	        0.0000000000	
        0.2215034918	      -14.6584744053	      577.9596552470	      -20.8281732052	        0.2567102681	        0.0000000000	        0.0454764503	       -0.0846651229	        0.0349022015	        0.0077514207	        0.0000000000	        0.0000000000	        0.0000000000	        0.0000000000	        0.0000000000	        0.0000000000	        0.0000000000	        0.0000000000	        0.0000000000	
        0.2325786664	      -12.7767978578	      577.7031159707	      -20.5380196226	        0.2618801715	        0.0000000000	        0.0453032974	       -0.1678405846	        0.0677865143	        0.0152910953	        0.0000000000	        0.0000000000	        0.0000000000	        0.0000000000	        0.0000000000	        0.0000000000	        0.0000000000	        0.0000000000	        0.0000000000	
        0.2436538410	      -10.5482572675	      577.6683626314	      -20.3070067604	        0.2671743132	        0.0000000000	        0.0450878690	       -0.3166800303	        0.1257513207	        0.0285766827	        0.0000000000	        0.0000000000	        0.0000000000	        0.0000000000	        0.0000000000	        0.0000000000	        0.0000000000	        0.0000000000	        0.0000000000	
        0.2547290156	       -8.2250486298	      577.2583123063	      -20.0488472030	        0.2725563627	        0.0000000000	        0.0448376792	       -0.5420230038	        0.2123785064	        0.0481982135	        0.0000000000	        0.0000000000	        0.0000000000	        0.0000000000	        0.0000000000	        0.0000000000	        0.0000000000	        0.0000000000	        0.0000000000	
        0.2658041902	       -5.8233443927	      575.6567392172	      -19.8490837307	        0.2779282874	        0.0000000000	        0.0445647891	       -0.8211227909	        0.3185391584	        0.0715918555	        0.0000000000	        0.0000000000	        0.0000000000	        0.0000000000	        0.0000000000	        0.0000000000	        0.0000000000	        0.0000000000	        0.0000000000	
